<svg width="100%" viewBox="0 0 680 200" xmlns="http://www.w3.org/2000/svg">
  <defs>
    <clipPath id="bgclip"><rect width="680" height="200" rx="12"/></clipPath>
  </defs>

  <rect width="680" height="200" rx="12" fill="#1a0a12"/>
  <circle cx="580" cy="-20" r="160" fill="#2d0f1e" opacity="0.8"/>
  <circle cx="100" cy="220" r="120" fill="#2d0f1e" opacity="0.6"/>

  <!-- Cat body -->
  <ellipse cx="578" cy="145" rx="52" ry="38" fill="#2a1535"/>
  <!-- Cat head -->
  <circle cx="578" cy="95" r="48" fill="#2a1535"/>
  <!-- Ears -->
  <polygon points="542,58 532,22 562,52" fill="#2a1535"/>
  <polygon points="614,58 624,22 594,52" fill="#2a1535"/>
  <polygon points="545,55 537,30 560,50" fill="#f472b6" opacity="0.6"/>
  <polygon points="611,55 619,30 596,50" fill="#f472b6" opacity="0.6"/>

  <!-- Eyes -->
  <ellipse cx="562" cy="92" rx="10" ry="11" fill="#f9a8d4"/>
  <ellipse cx="594" cy="92" rx="10" ry="11" fill="#f9a8d4"/>
  <ellipse cx="562" cy="93" rx="6" ry="8" fill="#1a0a12"/>
  <ellipse cx="594" cy="93" rx="6" ry="8" fill="#1a0a12"/>
  <circle cx="565" cy="89" r="2.5" fill="white"/>
  <circle cx="597" cy="89" r="2.5" fill="white"/>

  <!-- Nose -->
  <ellipse cx="578" cy="107" rx="4" ry="3" fill="#f472b6"/>
  <!-- Mouth -->
  <path d="M574 110 Q578 115 582 110" stroke="#f472b6" stroke-width="1.5" fill="none" stroke-linecap="round"/>
  <!-- Cheeks -->
  <ellipse cx="548" cy="108" rx="10" ry="6" fill="#f472b6" opacity="0.3"/>
  <ellipse cx="608" cy="108" rx="10" ry="6" fill="#f472b6" opacity="0.3"/>

  <!-- Whiskers -->
  <line x1="520" y1="104" x2="550" y2="107" stroke="#f9a8d4" stroke-width="1" opacity="0.6"/>
  <line x1="520" y1="110" x2="550" y2="110" stroke="#f9a8d4" stroke-width="1" opacity="0.6"/>
  <line x1="520" y1="116" x2="550" y2="113" stroke="#f9a8d4" stroke-width="1" opacity="0.6"/>
  <line x1="636" y1="104" x2="606" y2="107" stroke="#f9a8d4" stroke-width="1" opacity="0.6"/>
  <line x1="636" y1="110" x2="606" y2="110" stroke="#f9a8d4" stroke-width="1" opacity="0.6"/>
  <line x1="636" y1="116" x2="606" y2="113" stroke="#f9a8d4" stroke-width="1" opacity="0.6"/>

  <!-- Tail -->
  <path d="M626 155 Q660 130 650 100 Q645 85 635 95" stroke="#2a1535" stroke-width="10" fill="none" stroke-linecap="round"/>
  <path d="M626 155 Q660 130 650 100 Q645 85 635 95" stroke="#3d1f50" stroke-width="6" fill="none" stroke-linecap="round"/>

  <!-- Paws -->
  <ellipse cx="558" cy="178" rx="14" ry="9" fill="#2a1535"/>
  <ellipse cx="598" cy="178" rx="14" ry="9" fill="#2a1535"/>

  <!-- Text -->
  <text x="60" y="95" font-family="Georgia, serif" font-size="52" font-weight="700" fill="#f472b6" letter-spacing="-1">PlayStash</text>
  <text x="62" y="140" font-family="Georgia, serif" font-size="18" font-weight="400" fill="#f9a8d4" opacity="0.85">flutter • firebase • ai assistant</text>

  <rect x="60" y="155" width="200" height="2" rx="1" fill="#f472b6" opacity="0.4"/>
  <rect x="60" y="160" width="120" height="2" rx="1" fill="#f472b6" opacity="0.2"/>

  <!-- Sparkles -->
  <circle cx="490" cy="55" r="3" fill="#f472b6" opacity="0.4"/>
  <circle cx="460" cy="40" r="2" fill="#f9a8d4" opacity="0.3"/>
  <circle cx="510" cy="35" r="1.5" fill="#f472b6" opacity="0.5"/>
  <circle cx="475" cy="70" r="2.5" fill="#f9a8d4" opacity="0.25"/>

  <rect x="60" y="88" width="3" height="40" rx="1.5" fill="#f472b6" opacity="0.6"/>
</svg>
